<?xml version="1.0" standalone="no"?>
<!DOCTYPE svg PUBLIC "-//W3C//DTD SVG 20010904//EN"
 "http://www.w3.org/TR/2001/REC-SVG-20010904/DTD/svg10.dtd">
<svg version="1.0" xmlns="http://www.w3.org/2000/svg"
 width="256.000000pt" height="256.000000pt" viewBox="0 0 256.000000 256.000000"
 preserveAspectRatio="xMidYMid meet">
<metadata>
Created by potrace 1.16, written by Peter Selinger 2001-2019
</metadata>
<g transform="translate(0.000000,256.000000) scale(0.100000,-0.100000)"
fill="#000000" stroke="none">
<path d="M0 1280 l0 -1280 633 2 c347 1 605 3 572 5 -134 6 -386 37 -482 58
-13 3 -23 12 -23 19 0 11 79 14 468 14 513 -1 612 7 772 57 94 30 144 53 207
96 63 43 73 -3 16 -71 -79 -94 -270 -149 -593 -170 -73 -4 86 -8 438 -9 l552
-1 0 1280 0 1280 -1280 0 -1280 0 0 -1280z m2119 -95 c80 -41 124 -157 96
-252 -26 -89 -137 -174 -296 -228 -132 -45 -156 -27 -59 45 88 63 187 171 201
219 22 75 -32 127 -159 153 -35 7 -64 17 -65 23 -3 13 45 35 108 52 56 14 135
9 174 -12z m-1139 -28 c0 -9 -31 -22 -83 -36 -46 -12 -99 -31 -118 -43 l-34
-22 35 -8 c19 -5 142 -12 272 -15 250 -6 464 6 625 34 50 9 99 13 110 9 16 -7
15 -10 -12 -32 -66 -53 -239 -109 -420 -135 -126 -19 -463 -16 -586 4 -157 27
-229 69 -229 133 0 39 29 66 98 88 101 34 342 49 342 23z m-100 -293 c0 -9 -8
-23 -17 -30 -27 -20 -6 -32 72 -44 147 -21 379 -9 602 31 l72 13 55 -37 c57
-38 70 -62 39 -71 -43 -12 -238 -47 -348 -62 -311 -42 -635 16 -635 115 0 36
27 59 92 82 66 23 68 23 68 3z m63 -281 c-3 -25 5 -29 102 -43 109 -15 259
-12 380 9 l110 19 72 -41 c92 -53 94 -69 11 -96 -134 -44 -207 -55 -378 -55
-172 0 -264 11 -357 46 -117 43 -125 144 -13 176 53 16 75 11 73 -15z m-208
-172 c0 -10 -24 -21 -71 -32 -39 -10 -88 -25 -110 -34 -36 -15 -38 -17 -21
-30 68 -50 597 -89 892 -66 245 19 494 61 583 98 25 11 32 19 30 36 -4 32 32
29 51 -4 37 -66 -42 -126 -231 -174 -199 -50 -451 -75 -757 -75 -424 0 -670
38 -739 113 -23 24 -32 73 -18 96 22 34 123 65 266 81 98 10 125 8 125 -9z"/>
</g>
</svg>
